<mxfile host="app.diagrams.net" agent="Mozilla/5.0 (Macintosh; Intel Mac OS X 10_15_7) AppleWebKit/605.1.15 (KHTML, like Gecko) Version/18.2 Safari/605.1.15" version="26.0.7">
  <diagram name="Page-1" id="AeU-xj0LbcTx7gq5d55r">
    <mxGraphModel dx="933" dy="1729" grid="1" gridSize="10" guides="1" tooltips="1" connect="1" arrows="1" fold="1" page="1" pageScale="1" pageWidth="850" pageHeight="1100" math="0" shadow="0">
      <root>
        <mxCell id="0" />
        <mxCell id="1" parent="0" />
        <mxCell id="R70V5XC0buMxfFzWmvGT-40" value="" style="edgeStyle=orthogonalEdgeStyle;rounded=0;orthogonalLoop=1;jettySize=auto;html=1;fontSize=15;strokeWidth=2;" edge="1" parent="1" source="R70V5XC0buMxfFzWmvGT-1" target="R70V5XC0buMxfFzWmvGT-11">
          <mxGeometry relative="1" as="geometry" />
        </mxCell>
        <mxCell id="R70V5XC0buMxfFzWmvGT-1" value="User Starts Scan&amp;nbsp;" style="rounded=0;whiteSpace=wrap;html=1;fontSize=15;strokeWidth=2;" vertex="1" parent="1">
          <mxGeometry x="340" y="20" width="140" height="35" as="geometry" />
        </mxCell>
        <mxCell id="R70V5XC0buMxfFzWmvGT-2" value="Start Process" style="rounded=1;whiteSpace=wrap;html=1;arcSize=50;fontSize=15;strokeWidth=2;" vertex="1" parent="1">
          <mxGeometry x="349.5" y="-50" width="120" height="37" as="geometry" />
        </mxCell>
        <mxCell id="R70V5XC0buMxfFzWmvGT-28" value="" style="edgeStyle=orthogonalEdgeStyle;rounded=0;orthogonalLoop=1;jettySize=auto;html=1;fontSize=15;strokeWidth=2;" edge="1" parent="1" source="R70V5XC0buMxfFzWmvGT-3" target="R70V5XC0buMxfFzWmvGT-5">
          <mxGeometry relative="1" as="geometry" />
        </mxCell>
        <mxCell id="R70V5XC0buMxfFzWmvGT-3" value="Activate Servo Motors" style="rounded=0;whiteSpace=wrap;html=1;fontSize=15;strokeWidth=2;" vertex="1" parent="1">
          <mxGeometry x="347" y="160" width="125" height="47" as="geometry" />
        </mxCell>
        <mxCell id="R70V5XC0buMxfFzWmvGT-31" value="" style="edgeStyle=orthogonalEdgeStyle;rounded=0;orthogonalLoop=1;jettySize=auto;html=1;fontSize=15;strokeWidth=2;" edge="1" parent="1" source="R70V5XC0buMxfFzWmvGT-5" target="R70V5XC0buMxfFzWmvGT-29">
          <mxGeometry relative="1" as="geometry" />
        </mxCell>
        <mxCell id="R70V5XC0buMxfFzWmvGT-5" value="Scan Image Strip" style="rounded=0;whiteSpace=wrap;html=1;fontSize=15;strokeWidth=2;" vertex="1" parent="1">
          <mxGeometry x="360" y="260" width="100" height="51" as="geometry" />
        </mxCell>
        <mxCell id="R70V5XC0buMxfFzWmvGT-43" style="edgeStyle=orthogonalEdgeStyle;rounded=0;orthogonalLoop=1;jettySize=auto;html=1;entryX=0.5;entryY=0;entryDx=0;entryDy=0;exitX=0;exitY=0.5;exitDx=0;exitDy=0;fontSize=15;strokeWidth=2;" edge="1" parent="1" source="R70V5XC0buMxfFzWmvGT-6" target="R70V5XC0buMxfFzWmvGT-7">
          <mxGeometry relative="1" as="geometry" />
        </mxCell>
        <mxCell id="R70V5XC0buMxfFzWmvGT-6" value="Stitch Images Together" style="rounded=0;whiteSpace=wrap;html=1;fontSize=15;strokeWidth=2;" vertex="1" parent="1">
          <mxGeometry x="320" y="388" width="180" height="32" as="geometry" />
        </mxCell>
        <mxCell id="R70V5XC0buMxfFzWmvGT-44" style="edgeStyle=orthogonalEdgeStyle;rounded=0;orthogonalLoop=1;jettySize=auto;html=1;entryX=0;entryY=0.5;entryDx=0;entryDy=0;fontSize=15;strokeWidth=2;exitX=0.5;exitY=1;exitDx=0;exitDy=0;" edge="1" parent="1" source="R70V5XC0buMxfFzWmvGT-7" target="R70V5XC0buMxfFzWmvGT-8">
          <mxGeometry relative="1" as="geometry" />
        </mxCell>
        <mxCell id="R70V5XC0buMxfFzWmvGT-7" value="Generate Complete IR Image" style="rounded=0;whiteSpace=wrap;html=1;fontSize=15;strokeWidth=2;" vertex="1" parent="1">
          <mxGeometry x="110" y="440" width="214" height="34" as="geometry" />
        </mxCell>
        <mxCell id="R70V5XC0buMxfFzWmvGT-46" value="" style="edgeStyle=orthogonalEdgeStyle;rounded=0;orthogonalLoop=1;jettySize=auto;html=1;fontSize=15;strokeWidth=2;" edge="1" parent="1" source="R70V5XC0buMxfFzWmvGT-8" target="R70V5XC0buMxfFzWmvGT-9">
          <mxGeometry relative="1" as="geometry" />
        </mxCell>
        <mxCell id="R70V5XC0buMxfFzWmvGT-8" value="Validate Image Data" style="rounded=0;whiteSpace=wrap;html=1;fontSize=15;strokeWidth=2;" vertex="1" parent="1">
          <mxGeometry x="330" y="495" width="160" height="34" as="geometry" />
        </mxCell>
        <mxCell id="R70V5XC0buMxfFzWmvGT-52" value="" style="edgeStyle=orthogonalEdgeStyle;rounded=0;orthogonalLoop=1;jettySize=auto;html=1;fontSize=15;strokeWidth=2;" edge="1" parent="1" source="R70V5XC0buMxfFzWmvGT-9" target="R70V5XC0buMxfFzWmvGT-13">
          <mxGeometry relative="1" as="geometry" />
        </mxCell>
        <mxCell id="R70V5XC0buMxfFzWmvGT-9" value="Prepare Data For Upload&amp;nbsp;" style="rounded=0;whiteSpace=wrap;html=1;fontSize=15;strokeWidth=2;" vertex="1" parent="1">
          <mxGeometry x="310" y="555" width="200" height="35" as="geometry" />
        </mxCell>
        <mxCell id="R70V5XC0buMxfFzWmvGT-45" style="edgeStyle=orthogonalEdgeStyle;rounded=0;orthogonalLoop=1;jettySize=auto;html=1;exitX=0.5;exitY=1;exitDx=0;exitDy=0;entryX=1;entryY=0.5;entryDx=0;entryDy=0;fontSize=15;strokeWidth=2;" edge="1" parent="1" source="R70V5XC0buMxfFzWmvGT-10" target="R70V5XC0buMxfFzWmvGT-8">
          <mxGeometry relative="1" as="geometry" />
        </mxCell>
        <mxCell id="R70V5XC0buMxfFzWmvGT-10" value="Generate Complete Visual Image" style="rounded=0;whiteSpace=wrap;html=1;fontSize=15;strokeWidth=2;" vertex="1" parent="1">
          <mxGeometry x="471" y="440" width="244" height="33" as="geometry" />
        </mxCell>
        <mxCell id="R70V5XC0buMxfFzWmvGT-41" value="" style="edgeStyle=orthogonalEdgeStyle;rounded=0;orthogonalLoop=1;jettySize=auto;html=1;fontSize=15;strokeWidth=2;" edge="1" parent="1" source="R70V5XC0buMxfFzWmvGT-11" target="R70V5XC0buMxfFzWmvGT-3">
          <mxGeometry relative="1" as="geometry" />
        </mxCell>
        <mxCell id="R70V5XC0buMxfFzWmvGT-11" value="Perform Pressure&amp;nbsp;&lt;div&gt;Sensor Check&lt;/div&gt;" style="rounded=0;whiteSpace=wrap;html=1;fontSize=15;strokeWidth=2;" vertex="1" parent="1">
          <mxGeometry x="341" y="80" width="137" height="49" as="geometry" />
        </mxCell>
        <mxCell id="R70V5XC0buMxfFzWmvGT-53" value="" style="edgeStyle=orthogonalEdgeStyle;rounded=0;orthogonalLoop=1;jettySize=auto;html=1;fontSize=15;strokeWidth=2;" edge="1" parent="1" source="R70V5XC0buMxfFzWmvGT-13" target="R70V5XC0buMxfFzWmvGT-16">
          <mxGeometry relative="1" as="geometry" />
        </mxCell>
        <mxCell id="R70V5XC0buMxfFzWmvGT-13" value="Encrypt Data For Security" style="rounded=0;whiteSpace=wrap;html=1;fontSize=15;strokeWidth=2;" vertex="1" parent="1">
          <mxGeometry x="310" y="622" width="200" height="35" as="geometry" />
        </mxCell>
        <mxCell id="R70V5XC0buMxfFzWmvGT-54" style="edgeStyle=orthogonalEdgeStyle;rounded=0;orthogonalLoop=1;jettySize=auto;html=1;entryX=0.5;entryY=0;entryDx=0;entryDy=0;exitX=0;exitY=0.5;exitDx=0;exitDy=0;fontSize=15;strokeWidth=2;" edge="1" parent="1" source="R70V5XC0buMxfFzWmvGT-16" target="R70V5XC0buMxfFzWmvGT-17">
          <mxGeometry relative="1" as="geometry" />
        </mxCell>
        <mxCell id="R70V5XC0buMxfFzWmvGT-55" style="edgeStyle=orthogonalEdgeStyle;rounded=0;orthogonalLoop=1;jettySize=auto;html=1;exitX=1;exitY=0.5;exitDx=0;exitDy=0;entryX=0.5;entryY=0;entryDx=0;entryDy=0;fontSize=15;strokeWidth=2;" edge="1" parent="1" source="R70V5XC0buMxfFzWmvGT-16" target="R70V5XC0buMxfFzWmvGT-18">
          <mxGeometry relative="1" as="geometry" />
        </mxCell>
        <mxCell id="R70V5XC0buMxfFzWmvGT-16" value="Upload the Data to Cloud&amp;nbsp;" style="rounded=0;whiteSpace=wrap;html=1;fontSize=15;strokeWidth=2;" vertex="1" parent="1">
          <mxGeometry x="314.5" y="686" width="190" height="33" as="geometry" />
        </mxCell>
        <mxCell id="R70V5XC0buMxfFzWmvGT-56" value="" style="edgeStyle=orthogonalEdgeStyle;rounded=0;orthogonalLoop=1;jettySize=auto;html=1;fontSize=15;strokeWidth=2;" edge="1" parent="1" source="R70V5XC0buMxfFzWmvGT-17" target="R70V5XC0buMxfFzWmvGT-20">
          <mxGeometry relative="1" as="geometry" />
        </mxCell>
        <mxCell id="R70V5XC0buMxfFzWmvGT-17" value="Notify Doctor via Web App" style="rounded=0;whiteSpace=wrap;html=1;fontSize=15;strokeWidth=2;" vertex="1" parent="1">
          <mxGeometry x="50" y="736" width="200" height="32" as="geometry" />
        </mxCell>
        <mxCell id="R70V5XC0buMxfFzWmvGT-57" value="" style="edgeStyle=orthogonalEdgeStyle;rounded=0;orthogonalLoop=1;jettySize=auto;html=1;fontSize=15;strokeWidth=2;" edge="1" parent="1" source="R70V5XC0buMxfFzWmvGT-18" target="R70V5XC0buMxfFzWmvGT-19">
          <mxGeometry relative="1" as="geometry" />
        </mxCell>
        <mxCell id="R70V5XC0buMxfFzWmvGT-18" value="Notify Patients via&amp;nbsp;&lt;div&gt;Mobile App&lt;/div&gt;" style="rounded=0;whiteSpace=wrap;html=1;fontSize=15;strokeWidth=2;" vertex="1" parent="1">
          <mxGeometry x="590" y="728" width="160" height="48" as="geometry" />
        </mxCell>
        <mxCell id="R70V5XC0buMxfFzWmvGT-67" value="" style="edgeStyle=orthogonalEdgeStyle;rounded=0;orthogonalLoop=1;jettySize=auto;html=1;fontSize=15;strokeWidth=2;" edge="1" parent="1" source="R70V5XC0buMxfFzWmvGT-19" target="R70V5XC0buMxfFzWmvGT-65">
          <mxGeometry relative="1" as="geometry" />
        </mxCell>
        <mxCell id="R70V5XC0buMxfFzWmvGT-19" value="Patients Reviews the Data" style="rounded=0;whiteSpace=wrap;html=1;fontSize=15;strokeWidth=2;" vertex="1" parent="1">
          <mxGeometry x="600" y="864" width="200" height="33" as="geometry" />
        </mxCell>
        <mxCell id="R70V5XC0buMxfFzWmvGT-62" style="edgeStyle=orthogonalEdgeStyle;rounded=0;orthogonalLoop=1;jettySize=auto;html=1;exitX=1;exitY=0.5;exitDx=0;exitDy=0;entryX=0.5;entryY=0;entryDx=0;entryDy=0;fontSize=15;strokeWidth=2;" edge="1" parent="1" source="R70V5XC0buMxfFzWmvGT-20" target="R70V5XC0buMxfFzWmvGT-58">
          <mxGeometry relative="1" as="geometry" />
        </mxCell>
        <mxCell id="R70V5XC0buMxfFzWmvGT-20" value="Doctors Reviews the Data" style="rounded=0;whiteSpace=wrap;html=1;fontSize=15;strokeWidth=2;" vertex="1" parent="1">
          <mxGeometry x="50" y="813" width="200" height="33" as="geometry" />
        </mxCell>
        <mxCell id="R70V5XC0buMxfFzWmvGT-61" style="edgeStyle=orthogonalEdgeStyle;rounded=0;orthogonalLoop=1;jettySize=auto;html=1;entryX=0;entryY=0.5;entryDx=0;entryDy=0;fontSize=15;strokeWidth=2;" edge="1" parent="1" source="R70V5XC0buMxfFzWmvGT-21" target="R70V5XC0buMxfFzWmvGT-18">
          <mxGeometry relative="1" as="geometry" />
        </mxCell>
        <mxCell id="R70V5XC0buMxfFzWmvGT-21" value="Send Feedback to Patients" style="rounded=0;whiteSpace=wrap;html=1;fontSize=15;strokeWidth=2;" vertex="1" parent="1">
          <mxGeometry x="400" y="813" width="199" height="33" as="geometry" />
        </mxCell>
        <mxCell id="R70V5XC0buMxfFzWmvGT-25" value="End Process" style="rounded=1;whiteSpace=wrap;html=1;arcSize=50;fontSize=15;strokeWidth=2;" vertex="1" parent="1">
          <mxGeometry x="453" y="1094" width="111" height="37" as="geometry" />
        </mxCell>
        <mxCell id="R70V5XC0buMxfFzWmvGT-26" value="" style="endArrow=classic;html=1;rounded=0;exitX=0.5;exitY=1;exitDx=0;exitDy=0;entryX=0.5;entryY=0;entryDx=0;entryDy=0;fontSize=15;strokeWidth=2;" edge="1" parent="1" source="R70V5XC0buMxfFzWmvGT-2" target="R70V5XC0buMxfFzWmvGT-1">
          <mxGeometry width="50" height="50" relative="1" as="geometry">
            <mxPoint x="410" y="100" as="sourcePoint" />
            <mxPoint x="460" y="50" as="targetPoint" />
          </mxGeometry>
        </mxCell>
        <mxCell id="R70V5XC0buMxfFzWmvGT-29" value="Captured&amp;nbsp;&lt;div&gt;Ranged&lt;/div&gt;&lt;div&gt;Angle&lt;/div&gt;" style="rhombus;whiteSpace=wrap;html=1;fontSize=15;strokeWidth=2;" vertex="1" parent="1">
          <mxGeometry x="530" y="239.75" width="110" height="92.5" as="geometry" />
        </mxCell>
        <mxCell id="R70V5XC0buMxfFzWmvGT-33" value="" style="endArrow=classic;html=1;rounded=0;exitX=0.5;exitY=0;exitDx=0;exitDy=0;fontSize=15;strokeWidth=2;" edge="1" parent="1" source="R70V5XC0buMxfFzWmvGT-29">
          <mxGeometry width="50" height="50" relative="1" as="geometry">
            <mxPoint x="585" y="223.75" as="sourcePoint" />
            <mxPoint x="410" y="220" as="targetPoint" />
            <Array as="points">
              <mxPoint x="585" y="220" />
            </Array>
          </mxGeometry>
        </mxCell>
        <mxCell id="R70V5XC0buMxfFzWmvGT-38" value="" style="endArrow=classic;html=1;rounded=0;exitX=0.5;exitY=1;exitDx=0;exitDy=0;entryX=0.5;entryY=0;entryDx=0;entryDy=0;fontSize=15;strokeWidth=2;" edge="1" parent="1" source="R70V5XC0buMxfFzWmvGT-29" target="R70V5XC0buMxfFzWmvGT-6">
          <mxGeometry width="50" height="50" relative="1" as="geometry">
            <mxPoint x="585" y="324.25" as="sourcePoint" />
            <mxPoint x="410" y="392" as="targetPoint" />
            <Array as="points">
              <mxPoint x="585" y="362" />
              <mxPoint x="410" y="362" />
            </Array>
          </mxGeometry>
        </mxCell>
        <mxCell id="R70V5XC0buMxfFzWmvGT-42" style="edgeStyle=orthogonalEdgeStyle;rounded=0;orthogonalLoop=1;jettySize=auto;html=1;entryX=0.5;entryY=0;entryDx=0;entryDy=0;exitX=1;exitY=0.5;exitDx=0;exitDy=0;fontSize=15;strokeWidth=2;" edge="1" parent="1" source="R70V5XC0buMxfFzWmvGT-6" target="R70V5XC0buMxfFzWmvGT-10">
          <mxGeometry relative="1" as="geometry" />
        </mxCell>
        <mxCell id="R70V5XC0buMxfFzWmvGT-50" value="Yes" style="text;html=1;align=center;verticalAlign=middle;resizable=0;points=[];autosize=1;strokeColor=none;fillColor=none;rotation=-90;fontSize=15;strokeWidth=2;" vertex="1" parent="1">
          <mxGeometry x="575" y="336.25" width="50" height="30" as="geometry" />
        </mxCell>
        <mxCell id="R70V5XC0buMxfFzWmvGT-51" value="No" style="text;html=1;align=center;verticalAlign=middle;resizable=0;points=[];autosize=1;strokeColor=none;fillColor=none;rotation=-90;fontSize=15;strokeWidth=2;" vertex="1" parent="1">
          <mxGeometry x="575" y="213.75" width="40" height="30" as="geometry" />
        </mxCell>
        <mxCell id="R70V5XC0buMxfFzWmvGT-77" style="edgeStyle=orthogonalEdgeStyle;rounded=0;orthogonalLoop=1;jettySize=auto;html=1;exitX=1;exitY=0.5;exitDx=0;exitDy=0;entryX=0.25;entryY=1;entryDx=0;entryDy=0;strokeWidth=2;" edge="1" parent="1" source="R70V5XC0buMxfFzWmvGT-58" target="R70V5XC0buMxfFzWmvGT-21">
          <mxGeometry relative="1" as="geometry" />
        </mxCell>
        <mxCell id="R70V5XC0buMxfFzWmvGT-58" value="Doctors&amp;nbsp;&lt;div&gt;Add&amp;nbsp;&lt;/div&gt;&lt;div&gt;Comments&lt;/div&gt;" style="rhombus;whiteSpace=wrap;html=1;fontSize=15;strokeWidth=2;" vertex="1" parent="1">
          <mxGeometry x="260" y="864" width="150" height="102" as="geometry" />
        </mxCell>
        <mxCell id="R70V5XC0buMxfFzWmvGT-69" style="edgeStyle=orthogonalEdgeStyle;rounded=0;orthogonalLoop=1;jettySize=auto;html=1;entryX=1;entryY=0.5;entryDx=0;entryDy=0;fontSize=15;strokeWidth=2;exitX=0.5;exitY=1;exitDx=0;exitDy=0;" edge="1" parent="1" source="R70V5XC0buMxfFzWmvGT-59" target="R70V5XC0buMxfFzWmvGT-60">
          <mxGeometry relative="1" as="geometry" />
        </mxCell>
        <mxCell id="R70V5XC0buMxfFzWmvGT-78" style="edgeStyle=orthogonalEdgeStyle;rounded=0;orthogonalLoop=1;jettySize=auto;html=1;entryX=0.5;entryY=1;entryDx=0;entryDy=0;strokeWidth=2;" edge="1" parent="1" source="R70V5XC0buMxfFzWmvGT-59" target="R70V5XC0buMxfFzWmvGT-21">
          <mxGeometry relative="1" as="geometry" />
        </mxCell>
        <mxCell id="R70V5XC0buMxfFzWmvGT-59" value="Need &amp;nbsp;&lt;div&gt;Immediate&lt;/div&gt;&lt;div&gt;Action&amp;nbsp;&lt;/div&gt;" style="rhombus;whiteSpace=wrap;html=1;fontSize=15;strokeWidth=2;" vertex="1" parent="1">
          <mxGeometry x="493" y="933" width="120" height="80" as="geometry" />
        </mxCell>
        <mxCell id="R70V5XC0buMxfFzWmvGT-74" value="" style="edgeStyle=orthogonalEdgeStyle;rounded=0;orthogonalLoop=1;jettySize=auto;html=1;fontSize=15;strokeWidth=2;" edge="1" parent="1" source="R70V5XC0buMxfFzWmvGT-60" target="R70V5XC0buMxfFzWmvGT-70">
          <mxGeometry relative="1" as="geometry" />
        </mxCell>
        <mxCell id="R70V5XC0buMxfFzWmvGT-60" value="Send Feedback to&amp;nbsp;&lt;div&gt;Nurse / Receptionist&amp;nbsp;&lt;/div&gt;" style="rounded=0;whiteSpace=wrap;html=1;fontSize=15;strokeWidth=2;" vertex="1" parent="1">
          <mxGeometry x="226" y="1013" width="179" height="50" as="geometry" />
        </mxCell>
        <mxCell id="R70V5XC0buMxfFzWmvGT-68" style="edgeStyle=orthogonalEdgeStyle;rounded=0;orthogonalLoop=1;jettySize=auto;html=1;entryX=0;entryY=0.5;entryDx=0;entryDy=0;exitX=0.452;exitY=0.942;exitDx=0;exitDy=0;exitPerimeter=0;fontSize=15;strokeWidth=2;" edge="1" parent="1" source="R70V5XC0buMxfFzWmvGT-64" target="R70V5XC0buMxfFzWmvGT-59">
          <mxGeometry relative="1" as="geometry">
            <Array as="points">
              <mxPoint x="423" y="973" />
            </Array>
          </mxGeometry>
        </mxCell>
        <mxCell id="R70V5XC0buMxfFzWmvGT-64" value="Yes" style="text;html=1;align=center;verticalAlign=middle;resizable=0;points=[];autosize=1;strokeColor=none;fillColor=none;fontSize=15;strokeWidth=2;" vertex="1" parent="1">
          <mxGeometry x="400" y="886" width="50" height="30" as="geometry" />
        </mxCell>
        <mxCell id="R70V5XC0buMxfFzWmvGT-65" value="End Process" style="rounded=1;whiteSpace=wrap;html=1;arcSize=50;fontSize=15;strokeWidth=2;" vertex="1" parent="1">
          <mxGeometry x="643" y="927" width="114" height="38" as="geometry" />
        </mxCell>
        <mxCell id="R70V5XC0buMxfFzWmvGT-76" value="" style="edgeStyle=orthogonalEdgeStyle;rounded=0;orthogonalLoop=1;jettySize=auto;html=1;fontSize=15;strokeWidth=2;" edge="1" parent="1" source="R70V5XC0buMxfFzWmvGT-70" target="R70V5XC0buMxfFzWmvGT-25">
          <mxGeometry relative="1" as="geometry" />
        </mxCell>
        <mxCell id="R70V5XC0buMxfFzWmvGT-70" value="Notify Patient via Call" style="rounded=0;whiteSpace=wrap;html=1;fontSize=15;strokeWidth=2;" vertex="1" parent="1">
          <mxGeometry x="227" y="1096" width="177" height="33" as="geometry" />
        </mxCell>
        <mxCell id="R70V5XC0buMxfFzWmvGT-72" value="" style="endArrow=classic;html=1;rounded=0;exitX=0;exitY=0.5;exitDx=0;exitDy=0;fontSize=15;strokeWidth=2;" edge="1" parent="1" source="R70V5XC0buMxfFzWmvGT-58">
          <mxGeometry width="50" height="50" relative="1" as="geometry">
            <mxPoint x="260" y="920" as="sourcePoint" />
            <mxPoint x="150" y="790" as="targetPoint" />
            <Array as="points">
              <mxPoint x="20" y="915" />
              <mxPoint x="20" y="790" />
            </Array>
          </mxGeometry>
        </mxCell>
        <mxCell id="R70V5XC0buMxfFzWmvGT-73" value="No" style="text;html=1;align=center;verticalAlign=middle;resizable=0;points=[];autosize=1;strokeColor=none;fillColor=none;fontSize=15;strokeWidth=2;" vertex="1" parent="1">
          <mxGeometry x="220" y="886" width="40" height="30" as="geometry" />
        </mxCell>
        <mxCell id="R70V5XC0buMxfFzWmvGT-79" value="Yes" style="text;html=1;align=center;verticalAlign=middle;resizable=0;points=[];autosize=1;strokeColor=none;fillColor=none;rotation=-90;fontSize=15;strokeWidth=2;" vertex="1" parent="1">
          <mxGeometry x="540" y="1013" width="50" height="30" as="geometry" />
        </mxCell>
        <mxCell id="R70V5XC0buMxfFzWmvGT-81" value="No" style="text;html=1;align=center;verticalAlign=middle;resizable=0;points=[];autosize=1;strokeColor=none;fillColor=none;rotation=-90;fontSize=15;strokeWidth=2;" vertex="1" parent="1">
          <mxGeometry x="545" y="903" width="40" height="30" as="geometry" />
        </mxCell>
      </root>
    </mxGraphModel>
  </diagram>
</mxfile>
